<?xml version="1.0" standalone="no"?>
<!DOCTYPE svg PUBLIC "-//W3C//DTD SVG 20010904//EN"
 "http://www.w3.org/TR/2001/REC-SVG-20010904/DTD/svg10.dtd">
<svg version="1.0" xmlns="http://www.w3.org/2000/svg"
 width="1259.000000pt" height="1280.000000pt" viewBox="0 0 1259.000000 1280.000000"
 preserveAspectRatio="xMidYMid meet">
<metadata>
Created by potrace 1.15, written by Peter Selinger 2001-2017
</metadata>
<g transform="translate(0.000000,1280.000000) scale(0.100000,-0.100000)"
fill="#000000" stroke="none">
<path d="M1 9638 c0 -2122 4 -3155 10 -3138 6 14 8 35 6 47 -2 12 0 20 4 17 5
-3 9 -23 9 -45 0 -21 4 -39 9 -39 15 0 -4 195 -24 244 -6 15 -5 17 5 11 10 -6
12 5 7 56 -3 37 -2 51 2 34 5 -19 7 1 6 56 -3 96 10 140 19 68 11 -87 13 -93
15 -49 1 25 4 56 6 70 5 22 4 23 -5 5 -9 -17 -10 -15 -6 12 3 17 7 73 10 125
4 74 3 82 -4 38 -4 -30 -9 -77 -11 -105 -2 -41 -3 -44 -6 -16 -3 19 1 80 7
135 7 56 12 111 11 124 0 12 3 22 7 22 5 0 9 17 10 38 3 44 20 107 21 77 1
-30 20 -5 36 49 8 26 11 44 6 42 -4 -3 -11 24 -14 59 -7 69 9 175 25 175 6 0
7 11 4 24 -3 14 -2 27 3 30 4 3 11 33 15 67 6 54 9 59 23 47 15 -12 15 -11 5
9 -9 16 -9 35 -1 72 14 65 20 66 12 2 -3 -26 -2 -55 3 -64 6 -10 9 16 10 71 0
87 1 87 27 90 15 2 27 -1 27 -7 0 -6 7 -11 15 -11 8 0 15 5 15 10 0 6 -6 10
-14 10 -16 0 -28 67 -16 89 5 8 4 26 -1 38 -6 16 -4 35 5 58 8 18 12 36 9 39
-3 3 4 3 17 1 21 -4 22 -2 16 38 -5 32 0 61 22 125 16 45 32 79 36 75 4 -4 4
1 0 11 -4 10 -2 21 4 25 6 3 13 19 16 34 8 47 17 67 27 62 5 -4 8 4 8 17 -2
29 26 104 37 101 5 -1 16 -3 24 -6 8 -2 12 -2 8 0 -19 11 -18 70 1 108 14 27
20 33 20 20 0 -11 -6 -29 -14 -39 -17 -23 -20 -60 -4 -51 6 4 8 13 5 20 -2 7
2 21 9 32 14 17 14 17 15 0 0 -10 -5 -28 -11 -39 -8 -14 -8 -23 0 -31 12 -12
12 -9 16 96 1 32 -2 52 -7 45 -4 -7 -8 -10 -8 -7 0 10 71 149 76 149 4 0 3 -7
0 -16 -3 -9 0 -24 7 -33 10 -16 12 -11 13 35 0 45 -1 51 -12 36 -11 -14 -11
-12 -2 15 8 22 15 28 20 20 5 -8 8 -3 8 12 0 37 51 135 62 119 5 -8 6 -4 3 13
-4 17 -1 30 9 38 9 8 16 21 16 31 0 29 13 31 34 5 l21 -26 1 33 c1 18 -1 27
-3 21 -6 -18 -20 -16 -27 2 -3 9 3 30 14 48 11 17 20 28 20 24 0 -5 11 5 25
21 14 17 25 34 25 38 0 5 -7 0 -15 -10 -26 -34 -16 2 13 49 16 25 32 42 36 38
4 -4 5 -1 2 7 -3 8 3 26 14 40 l20 25 -10 -29 c-6 -16 -8 -31 -5 -34 9 -9 13
2 18 43 6 50 16 75 30 75 6 0 7 3 4 7 -4 3 -1 13 7 22 8 9 25 36 39 61 14 25
30 44 36 43 5 -1 12 11 16 27 8 37 19 44 39 25 8 -8 17 -11 20 -6 4 5 0 11 -6
14 -10 3 -9 8 2 22 11 14 12 19 2 22 -6 3 -10 9 -7 13 3 5 12 7 20 3 11 -4 13
-1 9 11 -4 11 2 26 15 40 12 12 19 25 16 28 -3 3 5 16 18 29 12 14 38 50 57
80 42 67 67 95 105 121 17 11 22 18 12 14 -25 -8 -22 -1 20 41 20 21 34 39 32
40 -2 2 8 15 22 30 14 16 27 33 28 38 3 16 43 56 76 76 17 11 24 19 17 19 -7
0 -10 5 -7 10 4 6 11 8 16 4 5 -3 8 -2 7 3 -3 8 67 101 87 115 5 4 13 4 19 1
5 -3 6 -1 2 6 -5 7 9 30 33 56 23 25 41 39 41 33 0 -6 -7 -20 -17 -30 -9 -10
-14 -21 -11 -23 3 -3 15 9 27 27 11 18 21 29 21 25 0 -5 16 8 36 28 19 20 33
40 29 43 -4 4 -11 -1 -16 -10 -9 -17 -49 -44 -49 -34 0 10 77 86 88 86 7 0 11
6 10 13 -2 6 6 12 16 12 11 0 21 6 24 14 3 9 0 11 -9 6 -8 -5 -5 1 5 14 11 12
26 19 33 17 7 -3 15 -1 18 4 4 6 1 10 -5 10 -6 0 -8 5 -5 10 3 6 15 10 25 10
19 0 36 -32 25 -50 -8 -13 -38 -13 -51 0 -6 6 -15 6 -24 0 -12 -8 -11 -10 7
-10 12 0 23 -5 25 -12 7 -20 57 0 64 26 6 26 -22 69 -40 60 -6 -3 9 12 34 34
48 43 68 48 30 7 -13 -14 -19 -25 -13 -25 16 0 56 48 48 59 -3 6 -1 11 5 11 6
0 8 5 4 11 -5 8 -1 8 14 0 11 -6 31 -10 44 -10 19 1 18 3 -7 8 -30 7 -30 7 -7
19 12 7 22 18 22 24 0 6 -11 1 -25 -12 -14 -13 -25 -19 -25 -14 0 13 112 114
127 114 7 0 17 9 22 19 18 33 142 125 170 126 18 0 27 6 29 20 2 18 2 18 -8 3
-6 -10 -16 -18 -22 -18 -6 0 -1 11 12 25 24 26 50 33 50 15 0 -6 11 -3 25 7
15 11 23 25 21 36 -4 17 28 47 49 47 5 -1 -1 -8 -15 -16 -16 -10 -18 -13 -5
-8 11 4 30 7 43 7 21 -1 22 0 5 12 -15 11 -15 15 -4 29 7 9 19 16 25 16 7 0
17 5 24 12 13 13 41 19 93 18 38 -1 65 20 56 42 -4 9 -6 7 -6 -4 -1 -19 -63
-37 -69 -19 -2 7 -9 6 -19 -4 -8 -8 -20 -15 -26 -15 -6 0 -4 8 6 17 10 11 30
16 51 15 24 -2 36 2 40 14 4 10 2 20 -3 24 -6 3 -1 12 11 19 18 11 20 11 15
-3 -9 -22 1 -20 48 9 23 14 33 25 23 25 -9 0 -20 -4 -23 -10 -8 -13 -25 -13
-25 -1 0 5 16 15 35 22 19 7 32 15 30 18 -11 10 130 90 150 85 15 -4 17 -3 6
4 -11 8 -3 16 35 36 27 14 66 37 86 51 25 17 35 20 32 10 -4 -8 -10 -15 -16
-15 -5 0 -7 -4 -3 -9 6 -11 52 29 51 44 -1 6 11 11 27 13 15 2 25 7 23 11 -6
9 75 57 88 53 5 -2 12 1 15 5 17 24 60 40 103 38 35 -2 45 1 41 11 -6 17 -15
18 -30 3 -6 -6 -17 -9 -25 -7 -8 3 0 11 20 22 17 9 32 13 32 9 0 -5 18 -8 39
-8 22 0 36 2 31 5 -4 3 -10 13 -12 24 -2 14 9 24 52 41 103 41 120 49 120 57
0 4 24 6 54 4 44 -4 54 -2 49 10 -4 10 -10 11 -25 3 -10 -6 -24 -9 -30 -7 -7
3 14 14 45 27 31 13 61 20 66 16 6 -3 11 -1 11 4 0 6 10 11 22 11 12 0 18 3
15 7 -9 8 52 35 64 27 5 -2 32 2 61 11 40 12 53 12 59 3 5 -7 11 -9 16 -5 4 5
1 12 -7 18 -13 8 -13 10 0 19 8 5 11 10 5 11 -5 0 28 13 74 29 47 16 89 26 93
23 5 -3 18 3 28 12 10 9 49 25 87 36 37 10 91 26 118 35 28 9 59 18 70 19 11
2 20 4 20 5 0 1 27 3 60 5 64 3 86 -2 64 -16 -11 -7 -10 -9 4 -9 19 0 22 11 6
27 -7 7 13 14 70 23 45 8 81 17 81 20 0 4 -25 3 -56 -2 -73 -11 -82 -3 -12 10
29 6 64 14 77 18 19 6 22 4 16 -7 -5 -8 1 -6 12 4 16 14 31 17 59 13 25 -4 30
-3 15 2 -21 6 -17 9 27 18 29 6 52 7 52 3 0 -10 68 -16 83 -7 7 4 -4 8 -28 9
l-40 1 40 9 c22 5 73 14 113 19 41 5 83 12 94 15 21 7 53 12 138 20 38 4 49 2
35 -4 -18 -9 -18 -10 7 -10 33 -1 59 9 53 19 -7 11 118 24 158 16 55 -11 309
5 303 19 -3 9 5 10 32 4 20 -4 46 -6 57 -4 11 3 76 6 145 8 69 2 117 2 108 0
-10 -3 -18 -9 -18 -15 0 -10 59 -2 72 11 4 3 51 4 105 1 l98 -5 -95 -6 c-69
-5 -52 -6 65 -4 88 2 187 -1 220 -5 51 -7 45 -8 -35 -4 -52 2 -108 0 -125 -4
-27 -8 -23 -10 43 -21 40 -7 76 -11 79 -8 3 3 -10 8 -28 11 -97 16 -95 16 101
1 25 -2 58 -6 73 -9 19 -4 26 -3 22 4 -3 5 -21 10 -38 11 -18 0 -27 3 -20 5 6
3 45 0 85 -6 40 -7 100 -14 133 -17 33 -3 65 -9 70 -13 6 -4 39 -8 75 -9 65
-1 156 -19 100 -20 -14 0 -46 4 -72 8 -27 4 -48 4 -48 -1 0 -4 13 -8 29 -8 52
0 94 -12 79 -22 -9 -6 -3 -7 17 -3 17 4 31 10 33 14 4 12 63 -1 69 -15 3 -8
15 -14 27 -13 21 0 21 1 1 10 -15 7 -10 8 20 4 22 -2 46 -5 53 -5 7 0 11 -4 8
-8 -2 -4 7 -9 22 -10 43 -2 142 -25 142 -32 0 -4 19 -7 43 -7 24 0 52 -5 62
-12 22 -13 23 -13 -55 5 -23 5 -24 5 -5 -7 11 -7 44 -12 73 -12 28 1 52 -2 52
-7 0 -4 17 -11 38 -15 70 -12 195 -52 181 -58 -8 -4 -2 -4 14 -1 17 4 27 2 27
-6 0 -6 8 -10 18 -9 9 1 24 0 32 -3 8 -3 38 -14 65 -23 28 -10 56 -23 64 -29
8 -6 23 -10 34 -8 12 2 17 -1 13 -7 -5 -7 3 -11 19 -11 32 0 185 -62 185 -75
1 -17 29 -49 37 -41 4 4 1 11 -7 16 -20 13 -6 23 21 15 17 -6 19 -9 8 -17 -10
-7 -8 -8 8 -5 22 5 117 -28 145 -50 7 -5 21 -13 31 -16 10 -4 16 -11 13 -16
-8 -12 -42 -3 -57 15 -16 19 -33 18 -25 -2 4 -10 -2 -24 -15 -35 l-22 -19 21
0 c13 0 22 6 22 15 0 10 10 15 29 15 16 0 31 -6 35 -15 7 -19 40 -20 58 -2 10
11 19 11 41 2 15 -6 24 -14 21 -18 -4 -4 4 -7 19 -7 25 0 44 -14 30 -23 -5 -2
-2 -2 5 0 19 4 109 -43 116 -63 4 -9 12 -14 22 -10 8 3 30 -2 47 -11 18 -9 27
-18 20 -20 -6 -2 -23 3 -37 13 -16 10 -26 12 -26 5 0 -6 4 -11 10 -11 5 0 7
-6 4 -14 -4 -10 3 -13 23 -12 15 1 33 5 39 8 6 4 31 -5 55 -20 24 -15 57 -34
72 -42 16 -8 24 -16 17 -18 -7 -3 -25 5 -41 17 -15 11 -34 21 -40 21 -7 0 -22
9 -34 20 l-22 20 0 -30 c0 -17 3 -26 7 -20 9 15 57 2 92 -23 15 -11 35 -17 46
-15 11 3 26 1 33 -4 11 -8 10 -9 -3 -4 -12 3 -15 1 -11 -9 3 -10 13 -13 29 -9
25 6 34 -10 11 -20 -6 -3 -2 -3 10 0 23 5 69 -13 59 -23 -3 -3 -12 0 -20 6 -9
8 -16 8 -20 2 -8 -12 26 -23 48 -15 9 3 16 1 16 -4 0 -6 10 -14 23 -18 12 -4
51 -27 87 -52 36 -24 55 -41 43 -38 -14 5 -23 3 -23 -3 0 -6 9 -11 20 -11 10
0 24 -8 30 -17 9 -15 10 -14 4 7 l-7 25 24 -20 c13 -11 33 -30 45 -42 12 -13
24 -20 27 -17 6 6 47 -17 47 -27 0 -3 -10 -10 -21 -15 -18 -9 -16 -10 17 -11
29 0 34 1 19 7 -13 6 -15 9 -5 9 8 0 24 -6 34 -14 11 -8 14 -15 8 -15 -7 0
-12 -5 -12 -11 0 -6 9 -8 20 -4 11 4 20 2 20 -4 0 -6 -5 -11 -12 -11 -9 0 -9
-3 0 -12 10 -10 14 -10 21 0 5 9 12 8 27 -4 16 -13 16 -15 2 -10 -10 3 -20 1
-23 -4 -3 -4 7 -7 22 -5 18 2 32 -4 41 -16 7 -11 18 -16 24 -13 8 5 9 1 5 -10
-4 -10 -3 -15 3 -11 13 8 58 -23 65 -45 3 -10 12 -17 19 -16 13 1 187 -136
180 -143 -2 -2 -11 2 -20 10 -16 13 -16 12 -3 -8 9 -16 20 -21 33 -17 15 5 18
3 12 -11 -8 -21 10 -45 33 -45 13 1 13 3 -3 15 -11 8 -17 17 -15 20 3 2 25
-14 50 -36 24 -22 67 -60 95 -84 39 -35 51 -52 52 -75 1 -38 9 -50 33 -50 10
0 19 -5 19 -11 0 -6 -14 -9 -32 -7 -29 3 -34 7 -39 38 l-6 35 -2 -31 c-1 -40
15 -54 68 -56 35 -1 41 -4 41 -24 0 -20 19 -36 45 -38 6 -1 9 -12 7 -26 -3
-29 13 -58 25 -46 4 5 2 11 -4 13 -14 5 -18 43 -5 43 5 0 14 -11 20 -25 6 -14
16 -25 22 -25 16 0 12 17 -6 24 -8 3 -13 10 -9 15 3 5 -3 12 -14 16 -11 3 -22
12 -25 20 -3 8 -12 15 -21 15 -8 0 -15 4 -15 9 0 14 -52 67 -72 74 -19 7 -25
27 -8 27 6 0 55 -44 109 -97 95 -95 98 -99 93 -136 -5 -41 17 -77 47 -77 10 0
6 7 -11 18 -22 13 -28 24 -28 50 0 23 4 32 13 29 6 -2 11 -10 9 -17 -6 -26 10
-52 28 -47 13 3 34 -13 72 -56 29 -33 62 -70 73 -81 11 -12 27 -30 35 -41 14
-20 14 -20 -8 -1 -12 11 -22 14 -22 8 0 -18 -14 -14 -38 8 -25 24 -30 10 -6
-15 11 -10 25 -14 40 -11 17 5 34 -4 70 -39 40 -37 44 -43 24 -39 -20 4 -19 2
5 -9 17 -8 39 -27 49 -43 11 -16 31 -41 45 -56 19 -19 26 -37 26 -65 0 -32 4
-39 23 -41 12 -2 22 -8 22 -13 0 -13 -37 -11 -63 3 -20 10 -21 10 -8 -6 10
-12 26 -16 49 -14 22 2 37 -2 40 -10 2 -7 9 -9 14 -6 17 11 39 -26 28 -46 -7
-13 -6 -20 6 -24 8 -3 12 -2 9 4 -3 6 -1 10 4 10 6 0 11 -9 11 -21 0 -11 4
-18 9 -15 14 9 72 -80 65 -101 -4 -12 -3 -14 3 -5 7 9 17 1 36 -29 15 -22 27
-49 27 -59 0 -10 5 -22 12 -26 8 -5 9 -2 4 12 -4 10 -3 15 1 10 4 -4 8 -18 8
-29 0 -12 5 -21 12 -20 7 2 10 -4 7 -12 -8 -20 6 -41 16 -25 6 9 10 6 15 -9 3
-11 11 -21 16 -21 6 0 8 -10 4 -22 -4 -15 -3 -19 3 -10 6 9 17 -2 38 -39 16
-28 34 -58 39 -67 50 -83 67 -114 61 -119 -3 -3 -9 3 -13 13 -4 10 -16 28 -27
39 -20 20 -20 20 -3 -7 9 -15 17 -34 17 -43 0 -14 4 -17 33 -19 6 -1 26 -28
43 -61 16 -34 38 -72 47 -85 18 -25 23 -45 9 -36 -10 6 -9 -70 1 -80 4 -4 7
-2 7 6 0 9 3 10 13 1 8 -6 18 -7 22 -3 5 4 5 2 2 -4 -4 -7 1 -18 10 -25 21
-18 65 -112 55 -119 -4 -3 -8 -18 -9 -35 -2 -28 1 -24 13 14 3 10 9 7 19 -12
8 -15 11 -35 8 -44 -4 -10 -2 -14 5 -9 13 8 26 -29 15 -46 -4 -7 -8 -40 -9
-73 -1 -46 1 -54 8 -35 5 14 7 39 4 55 -2 17 -2 24 1 18 2 -7 9 -13 14 -13 6
0 5 9 -1 21 -7 11 -9 23 -7 26 11 10 38 -60 33 -82 -6 -24 15 -51 29 -37 4 4
5 -6 2 -23 -5 -29 30 -151 41 -141 2 3 -6 30 -18 61 -12 31 -20 58 -18 61 7 6
58 -120 58 -141 0 -8 4 -15 8 -15 5 0 17 -28 27 -62 20 -70 19 -67 28 -88 22
-58 32 -103 32 -157 0 -35 3 -63 8 -63 4 0 12 0 18 0 5 0 7 5 3 11 -4 8 -9 7
-15 -2 -7 -11 -9 -11 -8 1 1 8 4 26 8 40 6 21 10 15 26 -43 16 -59 16 -70 4
-78 -12 -7 -12 -9 1 -9 20 0 39 -44 33 -73 -4 -18 -3 -19 6 -7 9 13 11 12 11
-3 0 -10 -5 -27 -10 -38 -7 -11 -7 -19 -1 -19 5 0 11 5 13 12 2 6 14 -26 27
-71 12 -46 20 -85 17 -88 -3 -3 -9 10 -15 28 l-9 34 -1 -35 c-2 -54 -17 -65
-16 -12 0 26 3 49 7 52 8 6 -2 60 -11 60 -3 0 -6 -15 -7 -32 0 -18 -4 -42 -8
-53 -6 -16 -6 -17 4 -5 9 12 10 6 5 -26 -7 -48 10 -69 31 -39 16 22 17 21 33
-24 9 -28 8 -39 -4 -58 -14 -21 -14 -23 0 -23 8 0 16 8 16 18 1 9 5 -1 9 -23
5 -22 6 -48 4 -57 -3 -10 -1 -18 4 -18 5 0 15 -26 22 -57 7 -32 15 -64 17 -70
3 -8 -3 -13 -15 -13 -15 0 -22 9 -27 30 -7 32 -25 51 -25 26 0 -8 5 -18 10
-21 6 -3 10 -14 10 -23 0 -15 -2 -15 -10 -2 -9 13 -10 13 -10 0 0 -8 13 -21
29 -28 16 -7 37 -25 46 -39 9 -14 12 -22 5 -18 -9 6 -9 2 0 -15 7 -12 9 -39 6
-63 -5 -32 -4 -37 4 -22 9 18 10 17 5 -5 -3 -14 -7 -50 -9 -80 -2 -30 -1 -39
1 -20 2 19 8 39 12 43 5 5 6 -3 4 -17 -3 -14 1 -33 8 -42 9 -11 9 -18 2 -22
-17 -11 -14 -239 3 -253 11 -9 14 -3 15 32 2 85 15 -1 18 -116 1 -60 6 -112
10 -115 3 -3 7 -27 8 -55 1 -27 4 -70 8 -95 4 -35 3 -42 -6 -30 -9 12 -10 11
-4 -5 4 -11 9 -36 11 -55 3 -31 3 -32 -6 -10 -8 21 -9 19 -4 -13 7 -52 7 -295
0 -332 -5 -24 -4 -26 3 -10 7 14 8 -3 5 -55 -3 -41 -6 -102 -6 -135 -1 -33 -4
-62 -9 -65 -4 -3 -9 -55 -10 -115 -3 -115 -16 -201 -18 -116 -1 36 -3 41 -15
32 -10 -9 -14 -38 -13 -114 1 -78 3 -91 8 -57 4 25 6 70 4 100 -1 30 0 39 2
20 2 -19 8 -37 13 -40 4 -3 3 -34 -2 -70 -6 -36 -11 -74 -12 -85 -2 -11 -6
-28 -10 -38 -5 -9 -5 -29 -1 -45 4 -15 3 -23 -1 -19 -5 4 -11 29 -15 55 -5 29
-6 -2 -5 -80 2 -70 -1 -125 -6 -122 -4 3 -8 -3 -8 -14 0 -10 -8 -26 -18 -35
-13 -12 -17 -26 -14 -49 l5 -31 13 29 c8 16 12 20 9 9 -9 -44 -26 -111 -32
-125 -6 -16 -8 -29 -11 -68 -2 -19 -6 -22 -24 -16 -21 6 -21 6 -5 -10 20 -21
20 -23 6 -67 -16 -45 -17 -46 -33 -24 -22 30 -39 9 -32 -39 5 -31 4 -37 -5
-26 -9 12 -10 11 -4 -5 4 -11 9 -31 11 -45 4 -22 3 -23 -5 -5 -7 15 -10 16
-10 4 -1 -8 6 -24 14 -35 8 -10 14 -26 14 -34 0 -10 -2 -11 -6 -2 -11 27 -20
10 -10 -18 8 -20 8 -33 2 -38 -6 -4 -10 -11 -11 -17 -2 -20 -17 -55 -23 -55
-3 0 -7 -12 -8 -27 -3 -52 -29 -153 -39 -153 -4 0 -3 8 0 17 4 10 3 14 -1 9
-4 -4 -9 -20 -9 -34 -2 -30 -25 -97 -39 -109 -4 -5 -5 5 -3 20 4 21 2 25 -5
18 -8 -8 -8 -19 -1 -40 8 -21 8 -34 -1 -52 -7 -13 -15 -41 -19 -61 -4 -21 -11
-38 -16 -38 -6 0 -10 -7 -10 -15 0 -21 -51 -147 -58 -141 -2 3 6 30 18 61 12
31 20 58 18 61 -11 10 -46 -112 -41 -141 3 -16 2 -27 -2 -23 -8 7 -45 -33 -45
-49 0 -4 5 -1 10 7 8 13 10 12 10 -4 0 -26 -41 -96 -53 -89 -5 3 -6 -3 -2 -16
5 -16 3 -20 -9 -15 -17 6 -22 -11 -7 -20 5 -4 4 -16 -2 -30 -13 -28 -26 -25
-28 7 -1 16 -3 17 -6 5 -2 -9 0 -25 6 -36 9 -17 -8 -65 -47 -132 -5 -8 -24
-44 -41 -80 -85 -174 -106 -209 -126 -210 -14 0 -25 -13 -37 -41 -15 -35 -15
-39 -2 -28 9 7 20 24 25 37 5 14 12 22 15 19 4 -3 -6 -27 -21 -53 -21 -36 -30
-43 -37 -33 -7 10 -7 7 -3 -8 8 -29 -4 -51 -17 -32 -8 11 -9 10 -4 -3 3 -10 0
-28 -7 -40 -23 -45 -72 -108 -83 -108 -14 0 -26 -28 -18 -41 3 -5 0 -8 -8 -7
-8 2 -12 -5 -11 -17 1 -10 -11 -35 -26 -55 -16 -19 -34 -46 -41 -59 -10 -19
-14 -21 -22 -10 -7 10 -8 8 -3 -8 5 -18 1 -25 -19 -35 -25 -11 -30 -19 -27
-45 1 -7 -5 -13 -14 -13 -9 0 -15 -9 -15 -21 0 -12 -5 -19 -12 -16 -7 2 -18
-3 -25 -12 -18 -23 -16 -36 4 -20 15 13 15 12 5 -6 -26 -46 -30 -49 -44 -37
-10 7 -18 8 -28 0 -12 -8 -12 -9 2 -4 22 7 34 -12 18 -27 -7 -7 -10 -7 -7 -1
4 7 -5 9 -24 6 -24 -4 -29 -9 -29 -33 0 -34 -17 -39 -23 -6 -2 12 -4 1 -4 -24
0 -35 -7 -57 -34 -95 -32 -47 -33 -48 -39 -24 -6 24 -7 23 -11 -7 -4 -21 -2
-30 5 -25 6 3 -1 -7 -16 -24 -15 -16 -36 -40 -47 -54 -18 -21 -20 -22 -15 -5
l6 20 -13 -20 c-7 -11 -14 -26 -15 -32 -1 -7 -8 -19 -16 -27 -7 -8 -37 -41
-66 -74 -55 -62 -72 -68 -98 -33 -10 13 -13 12 -23 -7 -6 -12 -18 -22 -26 -22
-8 0 -15 -5 -15 -11 0 -5 4 -8 9 -4 6 3 14 -3 20 -12 9 -16 10 -14 11 10 0 15
6 27 13 27 9 0 12 -11 9 -36 -3 -26 -8 -34 -19 -30 -8 3 -11 1 -8 -5 4 -5 -34
-51 -85 -102 -50 -50 -88 -84 -85 -76 5 13 1 15 -20 12 -30 -6 -34 -12 -37
-50 -2 -29 -45 -76 -120 -132 -21 -16 -36 -30 -34 -32 2 -2 -8 -13 -22 -24
-22 -15 -24 -16 -13 -2 21 26 8 30 -22 6 -21 -16 -27 -17 -27 -6 0 9 6 17 13
20 6 2 0 4 -15 3 -25 -1 -26 -3 -14 -21 8 -11 21 -19 30 -17 25 4 20 -4 -30
-50 -61 -56 -74 -64 -86 -47 -7 10 -8 9 -4 -6 4 -15 -4 -28 -29 -48 -19 -15
-39 -25 -44 -22 -5 3 -12 -3 -16 -14 -3 -11 -17 -27 -31 -36 -21 -13 -28 -14
-42 -4 -14 11 -15 11 -4 -1 16 -19 15 -30 -3 -30 -8 0 -15 -4 -15 -8 0 -9
-195 -152 -207 -152 -5 0 -27 -16 -48 -35 -22 -19 -41 -32 -44 -29 -3 3 1 9 9
14 9 6 10 10 3 10 -6 0 -15 -4 -18 -10 -3 -5 -14 -10 -25 -10 -18 0 -34 -25
-25 -40 6 -10 -24 -22 -36 -15 -5 3 -21 -1 -36 -10 l-28 -16 30 6 c29 5 29 5
10 -10 -11 -9 -24 -14 -30 -11 -6 2 -16 -4 -23 -14 -9 -15 -21 -17 -70 -14
-45 3 -62 1 -72 -11 -7 -9 -10 -18 -6 -22 3 -3 6 -2 6 4 0 8 8 8 25 0 28 -13
33 -27 10 -27 -8 0 -15 -5 -15 -11 0 -6 -7 -9 -15 -6 -8 4 -17 1 -21 -5 -5 -7
-2 -8 6 -3 9 5 11 4 6 -3 -4 -7 -15 -8 -30 -2 -27 10 -106 2 -106 -11 0 -5 6
-9 13 -9 6 0 0 -10 -15 -21 -16 -11 -28 -26 -28 -32 0 -6 10 -1 23 11 13 12
31 22 41 22 16 0 17 2 5 17 -13 15 -12 16 9 11 12 -4 20 -2 16 3 -3 5 2 9 10
9 36 0 22 -21 -36 -53 -46 -26 -66 -33 -76 -25 -7 6 -16 8 -19 4 -4 -4 -1 -11
6 -15 10 -6 4 -13 -19 -25 -39 -19 -43 -20 -34 -5 5 8 1 8 -14 0 -11 -6 -22
-17 -25 -26 -8 -18 -34 -9 -40 13 -4 13 -5 14 -6 2 -2 -22 -41 -45 -51 -30 -4
7 -13 9 -19 6 -8 -5 -7 -12 4 -22 12 -12 18 -13 37 -2 13 7 26 17 29 22 4 4 9
4 12 -1 7 -10 -82 -57 -91 -48 -3 3 1 5 8 5 7 0 11 3 7 6 -9 9 -58 -32 -49
-41 4 -4 -4 -4 -17 0 -18 5 -22 4 -16 -6 6 -9 3 -10 -11 -4 -10 4 -48 9 -84
10 -36 1 -51 1 -33 -2 21 -3 34 -11 38 -24 8 -25 7 -26 -30 -34 l-30 -7 25 21
c27 22 12 29 -19 9 -14 -9 -17 -16 -11 -29 8 -14 1 -20 -38 -35 -26 -10 -55
-17 -65 -16 -9 0 -15 -3 -12 -7 8 -13 -71 -44 -94 -36 -11 3 -29 1 -38 -5 -15
-8 -13 -9 12 -5 22 4 16 -1 -23 -20 -29 -14 -67 -27 -85 -30 -17 -4 -33 -9
-34 -13 -2 -4 -32 -6 -67 -6 -51 1 -63 -1 -59 -12 6 -16 19 -18 28 -4 3 6 21
10 38 9 30 -1 31 -1 7 -9 -14 -4 -50 -18 -80 -30 -30 -12 -62 -23 -70 -24 -8
-1 -28 -8 -45 -15 -16 -8 -49 -14 -72 -15 -22 0 -39 -4 -37 -8 5 -7 -41 -23
-96 -33 -19 -4 -62 -17 -96 -31 -34 -13 -81 -26 -105 -28 -24 -2 -57 -9 -72
-15 -16 -6 -46 -11 -68 -11 -21 0 -39 -4 -39 -10 0 -5 -6 -7 -14 -4 -8 3 -17
1 -21 -5 -3 -6 -18 -11 -33 -10 l-27 1 25 8 c20 6 21 8 5 8 -22 1 -66 -16 -50
-18 13 -2 -25 -18 -44 -19 -10 -1 -11 2 -2 13 9 11 8 15 -4 20 -9 3 -13 2 -10
-4 3 -6 1 -10 -4 -10 -6 0 -10 -5 -8 -12 3 -15 -53 -27 -130 -29 -35 0 -65 -5
-68 -10 -3 -4 -19 -6 -35 -2 -19 3 -30 1 -30 -6 0 -6 -16 -11 -37 -11 -21 0
-65 -5 -98 -10 -92 -15 -383 -40 -450 -38 -58 2 -58 2 20 8 72 6 66 7 -60 8
-98 2 -136 5 -125 12 11 8 7 9 -15 4 -63 -14 -59 -23 10 -24 39 -1 79 -5 90
-9 11 -5 -16 -7 -64 -5 -46 2 -91 -1 -100 -6 -10 -6 1129 -10 3122 -10 l3137
0 0 6400 0 6400 -6295 0 -6295 0 1 -3162z"/>
<path d="M8101 8103 c13 -16 227 -236 547 -562 84 -86 150 -148 146 -138 -4
10 -1 17 6 17 10 0 10 3 0 15 -7 9 -10 18 -7 21 7 8 -47 54 -62 54 -6 0 -11 5
-11 11 0 7 -10 9 -25 5 -18 -5 -25 -2 -25 9 0 8 -7 15 -16 15 -10 0 -13 6 -10
18 3 9 1 31 -4 47 -10 29 -10 28 -6 -8 4 -33 3 -37 -9 -27 -8 7 -12 16 -9 21
3 5 -1 9 -8 9 -7 0 -19 9 -26 20 -15 24 -5 26 20 3 24 -21 23 -2 -1 25 -18 22
-38 31 -27 13 4 -5 1 -11 -6 -13 -14 -5 -49 27 -67 61 -7 12 -17 19 -22 15 -6
-3 -13 3 -16 15 -3 12 -9 21 -14 21 -14 0 -61 49 -56 57 3 5 1 15 -5 23 -8 12
-9 12 -4 -2 8 -27 -13 -21 -23 6 -5 13 -18 26 -29 28 -14 4 -19 15 -20 42 -1
28 -9 45 -33 67 -37 34 -39 35 -32 10 3 -11 13 -21 22 -24 10 -2 23 -18 29
-36 13 -38 -3 -43 -20 -6 -6 14 -15 25 -19 25 -10 0 -50 41 -66 67 -9 15 -9
23 0 32 8 8 7 11 -6 11 -9 0 -17 -6 -17 -12 0 -7 -15 4 -32 25 -32 36 -65 54
-37 20z"/>
<path d="M7459 7950 c-90 -87 -161 -162 -157 -165 3 -3 19 10 34 29 25 30 35
34 65 32 l37 -3 -2 41 c-1 38 1 41 24 38 16 -1 20 1 12 6 -9 7 -8 13 8 27 11
10 23 15 28 10 4 -4 1 -10 -5 -12 -17 -6 -16 -20 1 -26 10 -4 12 3 10 28 -2
26 5 40 32 66 29 28 36 31 44 19 5 -8 10 -19 10 -25 0 -5 -5 -3 -10 5 -8 13
-11 13 -25 0 -14 -14 -11 -16 25 -16 35 0 38 1 26 15 -7 9 -11 22 -8 30 3 8 0
11 -7 7 -16 -10 -14 9 3 23 12 10 22 5 50 -23 23 -22 34 -40 30 -50 -3 -9 -1
-16 6 -16 6 0 8 5 5 10 -3 6 -2 10 4 10 6 0 15 -10 22 -21 10 -20 9 -21 -15
-15 -33 8 -34 -5 -1 -21 20 -9 25 -8 25 3 0 18 8 18 26 0 18 -19 18 -24 -3
-29 -10 -2 -8 -3 5 -2 13 1 35 -10 57 -31 40 -38 43 -44 15 -37 -11 3 -20 12
-20 19 0 8 -4 14 -10 14 -5 0 -10 -4 -10 -9 0 -15 26 -31 59 -35 l32 -3 -60
61 c-32 33 -90 93 -129 133 l-70 72 -163 -159z"/>
<path d="M1460 7413 c-8 -10 -15 -27 -16 -40 0 -12 -18 -40 -39 -62 -33 -34
-42 -38 -59 -29 -19 10 -20 10 -7 -5 12 -15 5 -26 -60 -91 -62 -64 -76 -73
-92 -64 -13 7 -17 7 -13 0 3 -6 0 -13 -6 -15 -10 -4 -10 -7 0 -15 10 -7 10
-11 -3 -22 -12 -10 -15 -10 -15 4 0 9 -5 16 -11 16 -6 0 -8 7 -5 17 4 10 3 14
-1 9 -13 -13 -10 -64 5 -59 6 3 12 0 12 -6 0 -11 -12 -15 -40 -12 -11 1 -12 0
-3 -6 9 -6 -9 -30 -58 -81 -39 -40 -73 -72 -75 -72 -12 0 0 21 25 46 l30 29
-31 1 c-17 1 -25 -2 -17 -6 9 -6 8 -12 -5 -26 -10 -9 -15 -25 -13 -35 5 -20
-76 -112 -89 -101 -4 4 -4 1 0 -5 4 -7 8 -13 9 -13 1 0 137 136 301 302 165
166 292 299 283 295 -23 -9 -21 5 3 31 11 12 20 24 20 27 0 10 -15 4 -30 -12z"/>
<path d="M1978 7320 c12 -12 22 -28 22 -36 0 -27 33 -73 57 -79 13 -3 23 -11
23 -18 0 -9 3 -9 9 1 6 10 16 6 40 -19 31 -30 36 -54 7 -30 -10 8 -16 9 -21 1
-12 -19 -26 -10 -20 13 5 19 4 20 -5 4 -16 -25 -5 -35 39 -32 35 2 44 -3 79
-39 28 -30 38 -49 38 -72 -1 -21 3 -30 12 -27 6 3 12 0 12 -6 0 -6 -5 -11 -12
-11 -6 0 -9 -2 -6 -5 3 -3 12 -3 21 1 15 5 15 9 -3 31 -32 42 -23 50 15 13 26
-25 32 -36 22 -43 -8 -6 -7 -7 5 -3 12 3 27 -5 43 -22 14 -15 21 -28 15 -30
-6 -2 -18 6 -28 18 -17 21 -17 21 -17 -12 0 -31 2 -33 33 -33 18 0 37 -6 41
-14 7 -10 9 -11 13 -1 2 8 35 -19 79 -64 61 -64 74 -83 74 -110 0 -23 4 -32
13 -29 6 3 12 1 12 -5 0 -6 -6 -12 -12 -15 -7 -2 7 -3 30 -2 36 2 48 -2 68
-24 13 -14 20 -27 14 -29 -6 -2 -18 6 -28 18 -17 21 -17 21 -17 -12 0 -30 3
-33 31 -33 21 0 30 4 27 13 -3 6 0 12 6 12 11 0 15 -12 12 -40 -1 -10 1 -11 6
-3 6 8 18 2 42 -19 31 -28 38 -54 7 -29 -8 7 -20 10 -26 6 -17 -10 -11 -23 9
-18 26 7 54 -25 47 -53 -3 -12 -2 -25 3 -28 13 -8 42 4 35 15 -3 5 -11 6 -17
3 -7 -4 -9 -4 -5 1 4 4 3 16 -3 27 -18 33 -3 31 31 -4 18 -18 28 -34 21 -36
-7 -2 -5 -9 5 -19 9 -10 13 -25 10 -39 -7 -28 8 -39 31 -24 16 9 15 10 -4 5
-24 -7 -33 10 -10 18 9 3 9 8 -2 21 -26 31 -4 27 28 -5 25 -25 30 -34 19 -41
-10 -7 -8 -8 4 -4 12 3 27 -5 43 -22 14 -15 21 -28 15 -30 -6 -2 -18 6 -28 18
-17 21 -17 21 -17 -12 0 -30 3 -33 31 -33 21 0 30 4 27 13 -3 6 0 12 6 12 10
0 15 -14 12 -34 -1 -4 5 -19 14 -32 14 -22 12 -29 -8 -25 -5 1 -6 -3 -2 -9 3
-5 17 -7 29 -4 28 7 60 -21 53 -47 -3 -12 0 -16 9 -12 17 6 19 -13 2 -21 -7
-3 -1 -3 13 0 34 7 63 -20 55 -52 -7 -26 5 -37 28 -28 14 5 14 9 -4 34 -31 43
-24 48 15 10 25 -24 31 -36 22 -42 -8 -5 -8 -8 -1 -8 7 0 14 -9 17 -20 3 -11
11 -20 17 -20 10 0 10 4 0 15 -7 9 -10 18 -7 22 4 3 15 -5 26 -18 16 -19 17
-25 5 -27 -19 -5 -18 -22 1 -22 8 0 15 5 15 11 0 5 5 7 10 4 6 -4 8 -11 4 -16
-3 -5 -2 -9 3 -8 19 3 33 -2 33 -12 0 -6 -6 -9 -12 -6 -15 5 -18 -46 -5 -59 4
-5 5 -1 1 9 -3 10 -1 17 5 17 6 0 11 7 11 16 0 14 3 14 15 4 13 -10 13 -15 3
-21 -7 -4 -9 -12 -4 -16 5 -4 11 -2 13 5 3 6 9 9 14 6 6 -3 3 -11 -7 -18 -19
-15 -10 -40 12 -32 8 3 14 1 14 -4 0 -6 5 -10 11 -10 8 0 7 5 -1 15 -27 32 0
24 33 -9 29 -31 34 -42 32 -76 -3 -44 4 -54 29 -44 14 5 14 9 -4 34 -31 43
-24 48 15 10 31 -30 33 -34 17 -46 -14 -10 -15 -15 -4 -26 11 -11 16 -10 27 5
12 17 15 16 44 -13 17 -18 31 -33 31 -36 0 -10 -18 -2 -39 17 -19 18 -25 19
-32 8 -11 -18 -11 -26 1 -34 6 -4 10 -3 9 2 -4 20 3 22 26 7 13 -8 29 -13 34
-10 5 4 21 -6 35 -21 14 -15 26 -24 26 -19 0 11 -1764 1776 -1775 1776 -5 0 1
-9 13 -20z"/>
<path d="M2621 7191 c-10 -7 63 -86 297 -320 186 -186 318 -311 329 -310 10 0
13 3 6 6 -21 8 -78 66 -75 75 1 6 -3 8 -10 6 -17 -6 -49 29 -42 46 5 12 11 9
30 -12 16 -19 23 -22 24 -12 0 22 -29 44 -75 55 -26 7 -44 18 -52 35 -7 14
-13 21 -13 16 0 -5 -24 15 -54 44 -30 30 -52 58 -50 62 3 4 1 8 -5 8 -17 0
-61 47 -58 61 2 8 2 11 0 7 -3 -5 -9 -8 -14 -8 -6 0 -7 5 -4 10 3 6 0 10 -8
10 -8 0 -18 7 -21 16 -10 26 -7 28 14 9 25 -23 26 -5 1 23 -18 22 -38 31 -27
13 3 -5 -1 -11 -8 -14 -11 -5 -14 2 -10 31 3 31 2 33 -5 12 -8 -23 -9 -23 -10
-4 -1 28 -26 48 -48 40 -11 -5 -29 7 -60 39 -24 26 -41 51 -38 56 8 11 4 11
-14 0z"/>
<path d="M9081 7127 c3 -4 -47 -61 -112 -126 -65 -65 -115 -121 -112 -125 3
-3 0 -6 -8 -6 -8 0 -50 -36 -94 -80 -44 -44 -75 -80 -69 -80 5 0 30 20 54 45
31 32 46 41 52 32 6 -9 8 -8 9 3 1 8 1 18 1 21 -1 4 8 15 18 24 15 13 20 14
20 5 0 -9 5 -7 15 6 12 16 14 16 15 3 0 -23 -26 -45 -33 -27 -2 7 -8 10 -12 5
-12 -11 11 -31 38 -32 26 -2 33 25 16 57 -8 15 -5 20 14 27 13 5 32 9 43 8 14
-2 19 5 19 29 0 24 -4 30 -15 26 -13 -4 3 15 93 109 18 20 32 26 23 10 -3 -5
1 -12 10 -15 22 -8 26 -8 19 3 -3 6 4 15 15 21 11 6 20 16 20 22 0 6 -11 3
-25 -6 -28 -19 -33 -11 -9 15 12 14 13 18 2 25 -7 4 -10 4 -7 1z"/>
<path d="M8303 6867 c-4 -6 0 -8 10 -4 26 10 20 -1 -18 -39 -42 -40 -45 -41
-46 -11 -1 21 -1 21 -9 -3 -4 -14 -8 -22 -9 -17 -1 4 -12 0 -26 -9 -14 -9 -22
-20 -19 -25 8 -14 24 -11 24 5 0 7 9 16 20 19 27 7 25 2 -15 -38 -40 -41 -45
-43 -37 -13 3 14 2 19 -7 14 -6 -4 -9 -12 -6 -17 4 -5 -4 -14 -17 -19 -23 -11
-23 -11 0 -6 28 5 29 -10 1 -25 -17 -9 -23 -8 -30 2 -6 10 -9 11 -9 2 0 -7 -7
-13 -16 -13 -8 0 -12 -5 -9 -10 5 -8 11 -7 21 1 11 9 14 8 14 -5 0 -14 -11
-21 -32 -17 -5 0 -7 -2 -7 -7 4 -21 -3 -32 -18 -32 -14 0 -15 2 -4 9 7 5 11
13 7 19 -7 12 -64 -38 -58 -51 2 -4 10 -3 18 4 27 22 25 2 -2 -31 -19 -22 -33
-30 -48 -26 -21 6 -46 -9 -46 -28 0 -6 4 -5 9 3 5 7 14 12 21 9 9 -3 8 -9 -4
-21 -10 -9 -22 -15 -27 -12 -5 4 -6 -1 -3 -9 3 -9 -2 -17 -14 -20 -11 -4 -27
-17 -35 -29 -10 -15 -26 -23 -48 -25 -21 -1 -41 -11 -53 -25 -10 -12 -23 -22
-30 -22 -6 0 -10 -8 -8 -17 1 -9 -6 -18 -18 -21 -11 -3 -20 -10 -20 -16 0 -9
5 -9 21 -1 11 7 23 10 25 7 7 -7 -137 -152 -148 -149 -5 1 -7 -2 -3 -8 8 -14
19 -6 107 81 48 48 65 72 62 86 -5 19 36 73 56 73 15 0 12 -11 -7 -26 -10 -7
-15 -16 -11 -20 4 -4 132 116 283 267 237 235 272 274 250 275 -14 1 -28 -3
-32 -9z"/>
<path d="M3530 6263 c0 -3 188 -192 417 -421 229 -230 413 -409 410 -399 -4
10 -7 21 -7 23 0 2 -7 4 -16 4 -10 0 -14 5 -10 16 3 8 2 13 -3 10 -5 -3 -15 2
-22 11 -12 15 -12 16 3 10 12 -4 15 -2 11 9 -4 11 -9 12 -18 4 -10 -8 -15 -8
-20 1 -4 6 -1 15 6 20 7 4 10 11 6 16 -5 4 -12 1 -16 -6 -5 -7 -14 -10 -20 -6
-8 4 -9 11 -2 18 6 8 4 17 -6 26 -13 12 -14 11 -8 -10 7 -21 6 -22 -8 -10 -9
7 -14 18 -10 23 3 6 0 9 -8 6 -17 -6 -66 51 -52 60 5 4 6 18 2 32 l-7 25 -1
-27 c-1 -16 -6 -28 -12 -28 -5 0 -7 5 -3 11 4 7 1 10 -7 7 -12 -4 -59 41 -59
56 0 3 10 6 23 6 17 0 19 2 7 9 -8 6 -18 7 -22 5 -12 -8 -68 28 -68 44 0 7 -4
11 -9 7 -14 -8 -26 16 -22 48 2 23 -3 30 -28 40 -23 8 -31 18 -32 37 0 14 -3
19 -6 12 -8 -21 6 -62 22 -62 8 0 19 -9 25 -20 15 -29 5 -25 -34 14 -20 18
-32 37 -28 41 4 4 1 6 -7 3 -19 -5 -54 29 -45 44 4 6 3 9 -2 6 -12 -7 -35 17
-26 27 4 4 0 6 -8 3 -15 -5 -69 53 -71 76 -1 6 -2 16 -4 21 -1 6 -3 16 -3 24
-2 10 -12 12 -37 8 -33 -5 -40 0 -36 26 0 4 -6 7 -14 7 -8 0 -15 4 -15 9 0 6
-14 18 -30 28 -17 10 -29 22 -26 28 2 6 -7 16 -20 22 -13 6 -24 9 -24 6z"/>
<path d="M1507 5847 c-5 -14 1 -21 28 -33 23 -9 35 -21 35 -34 0 -10 5 -22 10
-25 6 -3 10 -11 10 -17 0 -6 -8 -4 -18 5 -10 10 -22 17 -26 17 -4 0 9 -15 31
-33 21 -18 70 -66 110 -107 57 -59 71 -69 68 -50 -3 14 -3 19 1 13 3 -7 14
-13 25 -13 10 0 25 -12 33 -27 l15 -28 1 26 c0 31 -17 49 -47 49 -16 0 -23 6
-23 18 0 10 -3 22 -7 26 -5 4 -8 13 -8 19 0 7 -4 13 -10 13 -34 5 -55 19 -63
44 -7 19 -7 31 1 39 9 9 0 10 -36 6 -46 -6 -47 -5 -47 23 0 34 -16 52 -46 52
-13 0 -24 7 -26 18 -3 16 -4 16 -11 -1z"/>
<path d="M4867 5696 c-7 -18 18 -40 34 -30 8 4 9 3 5 -5 -5 -8 106 -126 308
-328 174 -174 316 -312 316 -306 0 5 -11 20 -25 33 -14 13 -25 27 -25 32 0 4
11 8 25 8 14 0 25 5 25 11 0 11 -16 9 -54 -7 -15 -5 -17 -4 -11 6 6 9 4 11 -5
5 -17 -11 -28 11 -25 49 3 32 2 32 -38 32 -41 -1 -42 0 -42 32 -1 36 -20 55
-46 46 -20 -6 -52 24 -45 42 3 8 0 11 -10 7 -20 -7 -18 14 4 26 9 6 12 11 5
11 -6 0 -15 -4 -18 -10 -10 -17 -23 -12 -54 23 -34 35 -39 50 -16 41 10 -4 15
0 15 10 0 13 -4 15 -19 6 -25 -13 -34 -13 -25 1 4 7 2 10 -5 8 -12 -4 -111 86
-111 100 0 9 -47 51 -57 51 -5 0 -19 13 -31 30 -24 31 -30 52 -10 32 15 -15
38 -16 38 -2 0 6 -6 9 -12 8 -7 -2 -12 2 -11 7 1 6 -15 10 -35 10 -29 0 -36 4
-34 18 3 21 -4 23 -11 3z"/>
<path d="M8424 5649 c-3 -5 0 -9 5 -9 6 0 11 -5 11 -11 0 -6 -8 -8 -20 -4 -15
5 -43 -17 -128 -102 -60 -59 -225 -220 -366 -357 -141 -137 -256 -253 -256
-257 0 -5 5 -9 10 -9 6 0 10 7 10 15 0 8 7 15 16 15 8 0 12 -5 8 -11 -4 -7 2
-7 17 1 34 18 38 24 12 16 -17 -6 -23 -3 -23 8 0 9 3 16 8 17 70 8 85 19 75
56 -5 23 2 27 37 24 12 -2 13 0 1 7 -14 10 -7 32 9 32 5 0 40 29 77 64 131
124 151 142 162 138 15 -5 77 55 68 65 -4 4 -20 -9 -36 -28 -16 -19 -32 -31
-37 -27 -4 5 26 39 66 78 41 38 76 68 78 66 7 -8 -21 -43 -47 -60 l-26 -16 29
6 c21 5 27 4 22 -5 -5 -7 -2 -10 6 -9 18 4 38 25 38 40 -1 8 -6 6 -15 -6 -8
-11 -18 -16 -22 -12 -4 4 -1 11 6 15 7 5 14 20 14 35 3 37 174 207 187 186 8
-12 12 -11 30 7 11 12 20 24 20 26 0 10 -40 15 -46 6z"/>
<path d="M1946 5431 c-3 -5 1 -11 9 -15 8 -3 15 -17 15 -31 0 -14 6 -25 13
-25 8 0 7 -3 -3 -10 -12 -7 25 -50 181 -206 134 -133 199 -192 204 -183 5 6 4
10 -1 7 -5 -3 -17 3 -26 14 -10 10 -16 18 -13 18 2 0 -11 16 -29 35 -19 19
-40 35 -46 35 -7 0 -10 7 -6 17 4 10 4 14 0 10 -9 -9 -44 22 -44 38 0 6 -11
17 -25 23 -30 14 -32 26 -4 45 11 8 16 18 11 21 -6 3 -13 0 -15 -6 -3 -7 -6
-2 -6 12 -2 42 -13 50 -65 45 -34 -4 -45 -2 -40 7 5 7 2 9 -9 5 -11 -4 -20 3
-29 23 -7 16 -16 26 -20 24 -4 -3 -6 12 -4 32 1 23 -2 38 -11 41 -7 3 -13 11
-13 19 0 16 -16 19 -24 5z"/>
<path d="M4000 5261 c0 -6 11 -23 24 -35 12 -13 26 -32 30 -41 3 -10 12 -15
21 -11 9 3 15 0 15 -8 0 -8 6 -17 13 -19 9 -4 9 -8 -1 -15 -10 -7 -6 -9 15 -9
15 -1 37 -3 48 -6 11 -3 22 -6 25 -6 3 -1 0 -5 -6 -9 -17 -11 -26 -49 -15 -57
7 -3 8 0 5 9 -3 9 -1 16 5 16 6 0 11 -4 11 -10 0 -5 7 -10 16 -10 8 0 12 -4 9
-10 -3 -6 1 -7 10 -4 11 5 14 2 8 -12 -4 -12 -3 -15 5 -10 7 4 12 1 12 -6 0
-8 13 -22 30 -31 25 -15 29 -16 24 -2 -9 22 9 19 24 -5 13 -21 56 -27 67 -9 4
6 13 8 21 5 8 -3 25 -1 38 5 18 9 23 18 22 41 -3 35 26 57 49 38 14 -11 35 -6
35 8 0 4 -7 16 -15 26 -15 19 -16 19 -47 -13 -18 -18 -33 -42 -33 -53 0 -11
-11 -27 -25 -35 l-25 -15 24 21 c13 12 21 24 17 28 -3 4 -21 -8 -39 -25 -18
-18 -40 -32 -49 -32 -8 0 -79 64 -157 141 -77 78 -141 137 -141 132 0 -5 5
-14 10 -19 8 -8 6 -15 -6 -25 -13 -10 -16 -11 -10 -1 5 9 -4 26 -28 49 -20 20
-36 31 -36 24z"/>
<path d="M1830 4975 c0 -8 3 -14 8 -12 9 2 144 -125 138 -131 -2 -2 -15 3 -28
12 -22 14 -23 14 -25 -11 -1 -19 1 -22 8 -12 7 11 12 12 28 2 13 -8 21 -9 23
-2 2 6 32 -18 66 -52 34 -34 58 -65 52 -69 -5 -3 -11 -17 -12 -30 -3 -21 1
-25 22 -22 13 1 27 8 32 14 9 16 20 5 23 -24 1 -13 3 -27 4 -31 0 -5 9 -6 19
-3 12 4 26 -1 37 -14 10 -11 13 -20 7 -20 -6 0 -14 5 -17 10 -8 12 -25 13 -25
1 0 -10 48 -25 69 -22 13 2 13 1 0 -15 -12 -16 -12 -17 1 -12 15 6 43 -15 34
-25 -3 -3 4 -15 15 -26 20 -20 30 -58 13 -47 -5 3 -9 -1 -9 -9 0 -19 11 -19
27 0 10 12 10 18 0 30 -26 32 0 26 28 -7 31 -34 35 -51 7 -28 -9 7 -18 10 -22
6 -10 -9 2 -17 31 -20 14 -1 29 -6 33 -9 3 -4 11 -7 17 -7 5 0 -126 135 -292
300 -165 165 -304 300 -307 300 -3 0 -5 -7 -5 -15z"/>
<path d="M9695 4424 c-154 -152 -268 -269 -253 -260 17 11 28 14 33 7 10 -16
35 -13 42 5 3 9 1 19 -6 23 -6 4 -9 15 -5 24 3 9 11 14 17 10 5 -3 7 -2 4 3
-3 5 10 20 28 33 19 13 37 32 40 42 4 10 12 19 19 19 8 0 28 18 45 39 22 27
38 38 49 34 12 -3 13 -2 4 4 -10 7 -8 14 8 28 11 10 23 15 28 10 4 -4 1 -10
-5 -12 -17 -6 -16 -20 1 -26 10 -4 12 3 10 28 -2 26 5 39 32 65 19 18 38 30
41 26 3 -3 -5 -14 -18 -25 l-24 -19 26 1 c22 2 25 6 24 32 -3 44 4 57 27 49
13 -4 18 -2 14 4 -7 12 23 46 33 36 3 -4 0 -9 -6 -11 -17 -6 -16 -20 0 -26 10
-4 13 4 12 26 -3 42 7 53 47 52 30 -1 34 2 33 23 0 14 -5 27 -10 29 -6 2 -137
-121 -290 -273z"/>
<path d="M5540 4150 c-8 -5 -11 -12 -7 -16 3 -4 13 -1 22 6 9 7 18 10 21 7 8
-8 -60 -77 -75 -77 -6 0 -11 -4 -11 -8 0 -5 -32 -41 -71 -81 -63 -63 -75 -71
-103 -68 -30 4 -32 2 -30 -26 4 -51 -4 -59 -50 -53 -35 4 -38 3 -18 -6 22 -11
25 -35 4 -31 -5 1 -13 -8 -16 -22 -5 -21 -10 -23 -40 -18 -18 3 -36 1 -40 -5
-4 -7 5 -9 25 -7 27 4 29 2 18 -11 -7 -8 -18 -13 -26 -10 -7 3 -14 0 -14 -7
-1 -7 -2 -19 -3 -27 -1 -11 -11 -14 -33 -13 -35 3 -58 -22 -47 -51 3 -9 -10
-28 -36 -52 -22 -20 -46 -47 -52 -58 -6 -12 121 110 282 269 160 160 305 303
321 318 16 16 29 35 29 43 0 16 -28 18 -50 4z"/>
<path d="M3320 4003 c0 -5 225 -232 500 -505 353 -350 503 -493 507 -482 3 8
3 18 -1 21 -3 4 -6 0 -6 -7 0 -8 -19 6 -42 30 -24 25 -43 49 -43 55 0 5 -5 10
-11 10 -14 0 -230 215 -227 226 2 5 0 8 -5 8 -20 -3 -30 3 -35 21 -3 11 -12
20 -21 20 -14 0 -20 12 -17 32 0 5 -2 7 -7 7 -20 -3 -32 3 -32 16 0 9 -11 20
-25 25 -14 5 -25 14 -25 20 0 18 31 10 56 -15 14 -14 29 -25 34 -25 6 0 10 -5
10 -10 0 -17 58 -72 64 -61 3 5 -6 20 -22 33 -28 23 -32 30 -32 48 0 6 -6 10
-13 10 -8 0 -22 9 -32 21 -12 12 -29 19 -45 17 -19 -2 -37 8 -65 35 -21 20
-35 37 -31 37 4 0 2 8 -3 18 -7 13 -6 23 2 32 10 12 9 12 -5 1 -14 -10 -15
-18 -7 -32 7 -13 6 -19 -1 -19 -6 0 -15 11 -20 24 -5 13 -18 27 -29 31 -16 5
-19 14 -18 45 2 29 0 36 -10 29 -6 -6 -9 -17 -6 -25 3 -8 0 -14 -6 -14 -6 0
-11 7 -11 15 0 9 -11 21 -25 27 -14 6 -24 18 -23 27 2 10 -3 15 -14 13 -10 -2
-18 3 -18 11 0 7 -11 19 -24 26 -20 11 -23 20 -22 64 l1 52 -37 1 c-21 0 -41
3 -44 7 -3 3 -12 3 -20 0 -8 -3 -14 1 -14 10 0 10 7 13 20 10 12 -3 20 0 20 6
0 7 -4 10 -9 6 -10 -6 -36 17 -44 37 -2 7 -8 10 -12 6 -5 -5 0 -17 10 -28 16
-18 16 -20 2 -20 -10 0 -17 7 -17 16 0 9 -5 12 -12 8 -8 -5 -9 -2 -5 10 4 10
3 15 -3 11 -6 -3 -10 -1 -10 4 0 6 -4 11 -10 11 -5 0 -10 -3 -10 -7z"/>
<path d="M3720 3106 c0 -9 9 -20 20 -26 12 -6 17 -16 13 -26 -5 -13 -2 -15 15
-10 15 5 22 2 27 -13 3 -10 17 -26 30 -35 20 -13 23 -22 20 -58 -2 -24 -1 -37
2 -30 7 17 23 15 23 -4 0 -8 4 -13 9 -9 5 3 13 0 16 -6 4 -6 17 -8 29 -5 18 4
22 1 21 -21 0 -19 7 -31 23 -39 13 -6 28 -16 34 -22 6 -6 17 -8 24 -5 8 3 14
-1 14 -9 0 -8 11 -21 25 -28 14 -7 25 -17 25 -22 0 -16 -27 -7 -50 17 -22 23
-40 25 -40 4 0 -6 4 -8 10 -4 5 3 19 -4 31 -16 14 -14 28 -19 43 -15 18 4 26
0 34 -18 6 -13 20 -27 31 -31 12 -3 21 -11 21 -16 0 -6 -4 -7 -10 -4 -5 3 -10
2 -10 -4 0 -5 5 -13 10 -16 6 -3 10 -1 10 4 0 6 5 11 11 11 5 0 7 -4 4 -10 -3
-5 0 -10 8 -10 16 0 30 -27 22 -40 -3 -4 4 -6 15 -3 16 4 19 1 16 -28 -2 -19
-1 -24 1 -11 7 33 22 26 17 -8 -3 -19 -1 -30 6 -30 7 0 9 7 6 16 -4 10 -1 14
6 11 7 -2 13 -11 12 -19 -1 -8 13 -19 32 -24 l33 -11 -22 28 c-12 16 -32 31
-44 35 -13 3 -21 9 -18 13 8 13 -274 284 -289 278 -18 -7 -34 12 -31 35 2 9
-12 31 -31 49 -19 18 -34 29 -34 23 0 -5 9 -18 21 -27 27 -24 17 -34 -14 -14
-16 10 -24 25 -23 41 1 19 -18 44 -76 101 -43 42 -78 69 -78 61z"/>
<path d="M850 70 c-9 -6 -180 -10 -432 -10 l-418 0 0 -30 0 -30 3120 0 c2194
0 3120 3 3120 11 0 6 -30 10 -82 9 -254 -4 -1284 4 -1238 10 52 6 50 7 -35 10
-77 3 -84 4 -45 10 l45 7 -42 1 c-23 1 -43 7 -45 13 -3 9 -25 9 -83 2 l-80
-10 85 -3 c74 -3 79 -4 40 -10 l-45 -7 40 -2 c22 -1 47 -6 55 -12 11 -8 -7 -9
-64 -5 -43 3 -334 7 -645 7 -311 1 -558 3 -548 6 18 5 18 5 0 19 -25 19 -33
17 -33 -6 0 -23 -10 -26 -28 -8 -9 9 -56 13 -150 14 -129 1 -130 0 -19 -3 70
-2 117 -8 117 -14 0 -6 -14 -8 -32 -5 -18 3 -505 9 -1083 13 -732 6 -965 10
-770 14 l280 5 -318 0 c-174 -1 -317 2 -317 7 0 4 -12 7 -27 6 l-28 -1 25 -8
c16 -5 -14 -8 -85 -9 -60 -1 -121 -4 -135 -6 -22 -5 -23 -4 -5 5 16 8 12 9
-22 7 -24 -1 -43 1 -43 5 0 11 -12 10 -30 -2z"/>
</g>
</svg>
